<?xml version="1.0" encoding="utf-8"?>
<!-- Generator: Adobe Illustrator 19.0.0, SVG Export Plug-In . SVG Version: 6.00 Build 0)  -->
<svg version="1.1" id="Layer_1" xmlns="http://www.w3.org/2000/svg" xmlns:xlink="http://www.w3.org/1999/xlink" x="0px" y="0px"
	 viewBox="0 0 420.7 129.4" style="enable-background:new 0 0 420.7 129.4;" xml:space="preserve">
<style type="text/css">
	.st0{fill-rule:evenodd;clip-rule:evenodd;fill:#FFFFFF;}
	.st1{fill-rule:evenodd;clip-rule:evenodd;fill:#ED1C24;}
	.st2{fill-rule:evenodd;clip-rule:evenodd;fill:#FFFFFF;}
</style>
<g id="XMLID_2_">
	<path id="XMLID_40_" class="st0" d="M12.2,60.5l-0.5-24.9l10.5-0.8l0.5,30.8l10-13.4l9.5,0.5l-8.5,11.3l10,24.2
		c-1.5,0.3-3.3,0.3-5.4,0.5c-1.8,0.5-3.9,1-6.2,1.5L26.1,72l-4.9,6.7l0.3,11.1h-9.3V60.5L12.2,60.5z M56.9,82.8l7.5-0.8
		c0-1.3,0.3-2.6,0.3-3.6c0.3-0.8,0.3-2.1,0.3-3.1v-1c-1.3,0-2.8,0.3-4.1,0.5c-1.3,0.3-2.6,0.8-3.9,1.3V82.8L56.9,82.8z M66.2,86.9
		c-1.8,1.5-3.3,2.8-5.1,3.3c-2.1,1-4.1,1.3-5.9,1.3c-3.1,0-5.1-0.8-6.7-2.6c-1.5-1.8-2.6-4.1-2.6-6.9c0-2.6,0.5-4.9,1.3-7.2
		c0.8-2.1,1.8-3.6,2.8-4.4c1-0.5,3.1-1.3,6.2-1.8c3.1-1,6.9-1.5,10.8-1.8v-1.3c0-0.8,0-1.5,0-2.1c0-0.8,0-1.3,0-2.1
		c-1.3-0.5-2.8-1-4.1-1.3c-1.5-0.5-2.8-0.5-3.6-0.5c-0.3,0-0.5,0-0.8,0c-0.3,0-0.5,0-0.5,0v4.9c-1.3,0-2.3-0.3-3.1-0.3
		c-1,0-2.1-0.3-2.8-0.3s-1.5,0-2.1,0c-1,0.3-1.8,0.3-2.6,0.3v-0.8c0-3.6,1.5-6.4,4.4-8.7c2.8-2.3,6.4-3.6,10.5-3.6
		c4.6,0,8.2,1.3,10.5,3.6c2.3,2.6,3.3,6.2,3.3,10.8c0,1.5,0,3.6,0,5.9c0,2.6-0.3,4.1-0.3,4.6c0,1.8,0.3,3.6,0.3,5.7
		c0.3,2.1,0.5,4.9,1,8.5c-0.5,0-1-0.3-1.8-0.3c-0.8,0-1.3,0-1.3,0c-0.8,0-1.5,0-2.6,0.3c-1,0-2.3,0.5-4.1,1L66.2,86.9L66.2,86.9z
		 M82.1,89.8c0.3-2.3,0.3-4.6,0.3-7.2c0.3-2.3,0.3-5.7,0.3-9.5c0-4.4,0-8-0.3-11.1c0-2.8,0-5.7,0-8.5h8.7v4.6
		c1.3-2.1,2.8-3.9,4.6-5.1c1.5-1.3,3.6-1.8,5.7-1.8c2.1,0,3.9,0.5,5.1,2.1c1.8,1,2.8,2.8,3.3,4.9c1-2.1,2.3-3.9,4.1-4.9
		c1.8-1.3,3.9-1.8,6.4-1.8c3.3,0,5.7,1,7.5,3.3c2.1,2.3,2.8,5.7,2.8,9.8L131,90l-10.8-0.5c0-1,0-2.1,0-3.1c0-1,0-2.8,0-5.1
		c0-0.5,0-1.3,0-2.6c0-1.3,0-3.3,0-5.9l-0.5-9.5l-7.5-0.3v26c-1.8-0.3-3.6-0.3-4.9-0.5c-1.5,0-2.8,0-3.9,0c-0.3,0-0.5,0-1.3,0
		c-0.5,0-1,0-1.3,0V64.1l-8,0.3c0,1.5,0,3.1,0,4.9c0,1.5,0,3.6,0,5.4v3.1c0,0.8,0,1.5,0,2.6c0,0.8,0,2.1,0,3.9c0,1.3,0,2.6,0,3.1
		c0,0.8,0,1.3,0,1.8c-2.6,0.3-4.9,0.3-6.4,0.3C85,89.5,83.4,89.5,82.1,89.8L82.1,89.8L82.1,89.8z M234,89.8c0-2.3,0.3-4.6,0.3-7.2
		c0.3-2.3,0.3-5.7,0.3-9.5c0-4.4,0-8-0.3-11.1c0-2.8,0-5.7-0.3-8.5h8.7l0.3,4.6c1-2.1,2.6-3.9,4.4-5.1c1.8-1.3,3.9-1.8,5.9-1.8
		c1.8,0,3.6,0.5,5.1,2.1c1.5,1,2.6,2.8,3.3,4.9c0.8-2.1,2.1-3.9,3.9-4.9c1.8-1.3,3.9-1.8,6.7-1.8c3.1,0,5.7,1,7.5,3.3
		c1.8,2.3,2.6,5.7,2.6,9.8l0.5,25.4l-10.8-0.5c0-1,0-2.1,0-3.1c0-1,0-2.8,0-5.1c0-0.5,0-1.3,0-2.6c0-1.3,0-3.3-0.3-5.9l-0.5-9.5
		l-7.2-0.3l-0.3,26c-1.8-0.3-3.6-0.3-4.9-0.5c-1.3,0-2.6,0-3.6,0c-0.3,0-0.8,0-1.3,0c-0.8,0-1.3,0-1.5,0V64.1l-7.7,0.3
		c0,1.5-0.3,3.1-0.3,4.9c0,1.5,0,3.6,0,5.4v3.1c0,0.8,0,1.5,0,2.6c0,0.8,0,2.1,0,3.9c0,1.3,0,2.6,0,3.1c0,0.8,0,1.3,0,1.8
		c-2.6,0.3-4.9,0.3-6.2,0.3C236.6,89.5,235.3,89.5,234,89.8L234,89.8L234,89.8z M299.6,67.4h8.2l-0.5-7.5l-7.7,0.3V67.4L299.6,67.4z
		 M307,78.5l10.5-0.5c-0.5,4.4-2.1,7.7-4.6,10.3c-2.3,2.3-5.4,3.3-9.3,3.3c-4.9,0-8.7-1.5-11.8-5.1c-2.6-3.6-4.1-8.5-4.1-14.4
		c0-6.4,1.3-11.3,4.1-15.2c2.8-3.6,6.4-5.7,11.1-5.7c4.6,0,8.5,2.1,11.1,5.9c2.6,3.9,4.1,9.3,4.1,15.9v1.3h-10.8c-1,0-2.3,0-3.9,0.3
		c-1.5,0-3.6,0-5.7,0.3c0,1.3,0,2.8,0,3.9c0,1.3,0.3,2.3,0.3,3.6h8.7L307,78.5L307,78.5z M322.2,79l8.7,0.8l0.5,2.6l9.3,0.3v-4.9
		c-7.5-0.5-12.6-1.8-14.9-4.1c-2.6-2.1-3.9-5.4-3.9-10.3c0-4.4,1-7.5,2.8-9.5c1.8-2.1,4.9-2.8,9.5-2.8c4.1,0,7.2,0.8,9,2.6
		c2.1,1.8,3.3,4.6,3.6,8.7l0,0c-3.6,0-6.2-0.3-8-0.3l-0.8-3.1h-8.5v5.1c7.5,0.5,12.3,1.5,15.2,3.9c2.6,2.1,3.9,5.4,3.9,10
		c0,4.4-1,7.7-3.6,10c-2.1,2.3-5.7,3.6-9.5,3.6c-4.4,0-7.7-1-10-3.1c-2.1-2.1-3.3-5.1-3.3-9.3V79L322.2,79z M351,62l0.3-7.7h4.6
		l3.9-11.8l5.1-0.3l-0.3,10.5l8.2,0.5l-0.5,9.8h-8.2l-0.3,19l4.9,0.3l-0.3-5.1h5.7c0,0.5,0,1.3,0,2.1c0,0.5,0,1.5,0,2.1
		c0,3.3-0.8,5.9-2.3,7.7c-1.8,1.8-4.4,2.6-7.5,2.6c-1.8,0-3.6-0.3-5.1-1c-1.3-0.5-2.6-2.1-3.9-3.3c-0.5-0.5-0.8-1.5-1-2.1
		c0-1-0.3-2.1-0.3-3.6V80c0-2.3,0.3-5.1,0.3-7.7c0.3-2.6,0.5-5.9,1-9.8L351,62L351,62z M387,82.8l7.5-0.8c0-1.3,0.3-2.6,0.3-3.6
		c0-0.8,0-2.1,0-3.1v-1c-1.3,0-2.6,0.3-3.9,0.5c-1.3,0.3-2.6,0.8-3.9,1.3V82.8L387,82.8z M396,86.9c-1.5,1.5-3.1,2.8-5.1,3.3
		c-1.8,1-3.9,1.3-5.7,1.3c-3.1,0-5.1-0.8-6.7-2.6c-1.8-1.8-2.6-4.1-2.6-6.9c0-2.6,0.5-4.9,1.3-7.2c0.8-2.1,1.8-3.6,2.8-4.4
		c1-0.5,3.1-1.3,6.2-1.8c3.1-1,6.9-1.5,10.8-1.8v-1.3c0-0.8,0-1.5,0-2.1c0-0.8,0-1.3,0-2.1c-1.3-0.5-2.8-1-4.1-1.3
		c-1.5-0.5-2.8-0.5-3.9-0.5h-0.5c-0.3,0-0.5,0-0.8,0v4.9c-1,0-2.3-0.3-3.1-0.3c-0.8,0-1.8-0.3-2.6-0.3c-0.8,0-1.5,0-2.3,0
		c-0.8,0.3-1.5,0.3-2.3,0.3v-0.8c0-3.6,1.5-6.4,4.1-8.7c3.1-2.3,6.7-3.6,10.8-3.6c4.6,0,8.2,1.3,10.3,3.6c2.6,2.6,3.6,6.2,3.6,10.8
		c0,1.5,0,3.6,0,5.9c0,2.6-0.3,4.1-0.3,4.6c0,1.8,0.3,3.6,0.3,5.7c0.3,2.1,0.5,4.9,1,8.5c-0.5,0-1-0.3-2.1-0.3c-0.5,0-1,0-1.3,0
		c-0.5,0-1.3,0-2.3,0.3c-1,0-2.6,0.5-4.1,1L396,86.9L396,86.9z"/>
	<polygon id="XMLID_1_" class="st1" points="148.8,12.6 232.4,22.8 220.4,120.5 136.9,110.3 148.8,12.6 	"/>
	<path id="XMLID_33_" class="st2" d="M178.8,22.2c0.5,0,1.3,0.3,2.1,1c0.5,0.5,0.8,1.5,0.8,2.8c0,1.3-0.5,5.1-1.3,11.6
		c-0.8,5.9-1.5,11.3-2.1,15.4c-1,4.6-1.5,7.7-1.5,9.5c-0.3,2.1-0.3,4.9-0.3,9.3c0,6.9,0,12.6,0.3,16.5c0,1,0.3,1.8,0.3,1.8
		c0,0.8,0,1,0,1s0.3,0.3,0.5,0.3c0.3,0,0.8,0.5,0.8,1.3c0,1,0.3,2.1,0.8,3.9c0.3,0.5,0.5,1,1,1c0,0,0.3,0,0.8,0
		c0-0.5,0.3-0.5,0.5-0.5c0.5,0,1,0.5,1.5,1.5c0.8,1,1,2.1,1,3.1c0,1.5-0.5,2.6-1.3,3.6c-0.8,0.8-1.8,1.3-2.8,1.3
		c-1.3,0-2.6-1-3.3-3.1c-0.8-2.6-1.5-4.1-1.8-5.7c-0.3-1-0.8-4.1-1.3-9.3l-0.8-2.3c-0.3,1-0.5,2.3-1,4.1c-1.8,5.4-3.3,10-5.7,13.1
		c-1,1.5-1.5,2.1-2.1,2.6c-0.3,0.3-1,0.5-2.6,1.3c-1.5,1-2.8,1.5-3.6,1.5c-3.1,0-5.7-2.3-7.5-6.4c-2.1-4.4-3.3-10.5-3.3-18.2
		c0-9.5,1.5-18,4.1-24.7c1.5-3.9,3.3-6.7,5.9-9.3c1.8-1,3.3-2.1,4.6-2.1c1.8,0,4.1,1,6.7,2.6c1.5,0.5,3.1,2.1,3.6,3.9
		c0.5,1,0.8,1.3,0.8,1.3c0.5,0,0.5-0.3,0.8-1c0-0.8,0-1.8,0-2.6c0-4.9,0.8-12.6,2.3-23.9c0.3-2.1,0.5-3.9,1-4.9
		C177,22.4,177.8,22.2,178.8,22.2L178.8,22.2z M172.4,64.1c0,0-0.3,0-0.5,0c-0.3,0-0.5,0-0.5,0c-0.5,0-0.5,0-0.8-0.5
		c-0.5,0-0.8-1-1.5-2.3c-0.5-1.5-1.8-2.6-3.1-3.6c-1.5-1-2.8-1.8-4.4-1.8c-1.3,0-2.8,1-4.4,2.1c-1.3,1.5-2.6,3.6-3.3,6.2
		c-2.3,4.9-3.1,10.8-3.1,17.5c0,3.6,0.3,6.7,0.8,9.8c0.5,2.8,1.5,5.4,2.6,7.2c1.3,1.8,2.6,2.8,3.6,2.8c2.1,0,4.4-1.8,6.7-5.4
		c2.1-3.3,4.1-8,5.7-14.4c0.5-1.3,1-4.6,1.8-9.3c0.5-4.4,0.8-6.9,0.8-8C172.6,64.1,172.6,64.1,172.4,64.1L172.4,64.1z M222.7,72
		c0.3,0,0.5,0.3,0.8,1.5c0.3,0.5,0.8,1.3,0.8,1.5c0,0.8-0.5,2.3-1,4.4c-0.3,0.8-0.8,1.8-1.3,2.8c-2.1,3.6-3.3,5.9-4.1,6.2
		c-1.8,1.8-2.8,2.8-2.8,2.8c-0.3,0.5-0.5,1.5-0.8,3.3c-1,3.3-2.6,6.7-5.7,10.3c-0.8,0.5-1.8,1.3-3.1,2.1c-1.5,1-3.6,1.8-5.9,1.8
		c-2.6,0-4.9-1.3-7.2-2.8c-3.1-2.6-5.4-5.7-7.2-10c-1.5-4.6-2.6-9.8-2.6-15.2c0-7.7,1.5-13.6,4.1-17.5c0.8-1.8,2.3-2.8,3.9-3.9
		c2.1-1,3.9-1.8,5.7-1.8c0.5,0,1.3,0.3,1.8,0.3c1,0.8,1.5,0.8,1.5,0.8c0.3,0,1-0.3,2.3-1.3c0.8-0.5,2.1-0.8,2.8-0.8
		c3.9,0,6.9,2.8,8.7,7.7c0.8,1.8,1.3,3.9,1.8,6.4c0.3,2.3,0.5,4.9,0.5,6.7v2.3c0,1,0.3,1.8,0.8,1.8c0.3,0,0.5-0.3,0.8-1
		c0-0.3,0.8-1.5,2.3-3.1c0.5-0.8,1-2.3,2.1-4.4C222,72.3,222.5,72,222.7,72L222.7,72z M205.8,63.3c-0.8,0-1.5,0.3-1.8,0.8
		c-0.8,0.3-1.3,1-1.5,2.3c0,0-0.5,0.5-1.5,1c-0.8,0.5-1.3,1.8-1.8,3.6c-0.8,1.8-1,3.6-1,5.4c0,3.1,1.3,5.4,3.6,7.7
		c1.5,1.3,3.3,2.1,5.4,2.1c0.8,0,2.1-0.3,3.1-0.3c1-0.5,1.8-0.8,2.1-1.3c0.3-0.3,0.3-2.1,0.3-4.9c0-4.6-0.5-8.5-2.1-11.6
		C209.4,65.1,207.6,63.3,205.8,63.3L205.8,63.3z M195,65.6c-1,0-2.6,0.5-3.9,1.5c-1.3,0.8-2.3,2.8-3.3,5.1c-0.8,2.8-1,5.7-1,9
		c0,2.8,0.3,5.9,1.3,8.7c1,2.8,2.3,5.4,4.1,7.5c2.6,2.8,5.1,4.1,8,4.1c1.5,0,2.8-0.3,4.4-1.3c1.3-0.8,2.6-2.3,3.3-3.6
		c1.3-2.1,1.8-3.1,1.8-3.1c0-0.5,0-0.8-0.3-0.8l-4.6,0.3c-0.3,0-1.5-0.3-2.8-1c-1.5-0.8-2.6-1.8-3.1-2.1c-1.5-1.5-2.6-3.9-3.9-6.7
		c-0.8-2.8-1-5.7-1-8.5c0-2.1,0.3-4.1,1-5.7c0.8-1.3,1.3-2.1,1.3-2.8C196.3,65.6,195.7,65.6,195,65.6L195,65.6z"/>
	<path id="XMLID_28_" d="M405.9,29.1c-2.2,0-3.9,1.7-3.9,3.8c0,2.1,1.7,3.8,3.8,3.8c2.1,0,3.8-1.7,3.8-3.8
		C409.7,30.8,408,29.1,405.9,29.1L405.9,29.1z M405.9,29.6c1.8,0,3.3,1.5,3.3,3.4c0,1.9-1.5,3.4-3.3,3.4c-1.8,0-3.3-1.5-3.3-3.4
		C402.6,31.1,404,29.6,405.9,29.6L405.9,29.6z M404.7,33.3h1c0.4,0,0.6,0,0.7,0.1c0.2,0.1,0.3,0.3,0.3,1c0,0.4,0,0.5,0.1,0.6h0.7
		c-0.1-0.1-0.1-0.2-0.2-0.3c0-0.1,0-0.2-0.1-0.7c-0.1-0.7-0.2-0.8-0.6-1c0.5-0.2,0.7-0.5,0.7-1c0-0.4-0.2-0.7-0.5-1
		c-0.3-0.2-0.4-0.2-1.1-0.2h-1.9V35h0.6V33.3L404.7,33.3z M404.7,32.8v-1.4h1.2c0.4,0,0.5,0,0.6,0c0.2,0.1,0.4,0.3,0.4,0.6
		c0,0.3-0.2,0.6-0.5,0.7c-0.2,0.1-0.4,0.1-0.9,0.1H404.7L404.7,32.8z"/>
</g>
</svg>
