<?xml version="1.0" encoding="utf-8"?>
<!-- Generator: Adobe Illustrator 25.2.0, SVG Export Plug-In . SVG Version: 6.00 Build 0)  -->
<svg version="1.1" id="Layer_1" xmlns="http://www.w3.org/2000/svg" xmlns:xlink="http://www.w3.org/1999/xlink" x="0px" y="0px"
	 viewBox="0 0 1000 1000" style="enable-background:new 0 0 1000 1000;" xml:space="preserve">
<style type="text/css">
	.st0{fill:url(#SVGID_1_);}
	.st1{fill:url(#SVGID_2_);}
	.st2{fill:#20A532;}
	.st3{fill:url(#SVGID_3_);}
	.st4{fill:url(#SVGID_4_);}
	.st5{fill:#FFEB31;}
	.st6{fill:#FFCE00;}
	.st7{fill:url(#SVGID_5_);}
	.st8{fill:url(#SVGID_6_);}
	.st9{fill:url(#SVGID_7_);}
	.st10{fill:url(#SVGID_8_);}
	.st11{fill:#FFFFFF;}
</style>
<g>
	<g>
		<linearGradient id="SVGID_1_" gradientUnits="userSpaceOnUse" x1="499.7203" y1="58.8748" x2="506.4551" y2="756.0335">
			<stop  offset="0" style="stop-color:#00B8F2"/>
			<stop  offset="5.570614e-02" style="stop-color:#19B9EC"/>
			<stop  offset="0.1701" style="stop-color:#45BBE0"/>
			<stop  offset="0.2895" style="stop-color:#6BBDD7"/>
			<stop  offset="0.4126" style="stop-color:#8ABECF"/>
			<stop  offset="0.5405" style="stop-color:#A2C0C9"/>
			<stop  offset="0.6752" style="stop-color:#B4C0C4"/>
			<stop  offset="0.8214" style="stop-color:#BEC1C2"/>
			<stop  offset="1" style="stop-color:#C1C1C1"/>
		</linearGradient>
		<path class="st0" d="M851.9,579.5h-0.8c0-40.3-58.3-75.9-147.7-97.4c-56.7-13.7-125.9-21.7-200.7-21.7c-74.7,0-143.9,8-200.7,21.8
			c-85.7,20.7-142.9,54.3-147.4,92.6l0.3-318.3c0-65.8,155.9-119.2,348.3-119.2c192.4,0,348.3,53.4,348.3,119.2L851.9,579.5z"/>
		<linearGradient id="SVGID_2_" gradientUnits="userSpaceOnUse" x1="502.7598" y1="455.8171" x2="501.4896" y2="54.4995">
			<stop  offset="0" style="stop-color:#27D146"/>
			<stop  offset="1.296955e-02" style="stop-color:#34D451"/>
			<stop  offset="5.808920e-02" style="stop-color:#5DDC74"/>
			<stop  offset="0.1087" style="stop-color:#83E395"/>
			<stop  offset="0.1639" style="stop-color:#A3E9B0"/>
			<stop  offset="0.2248" style="stop-color:#BFEEC7"/>
			<stop  offset="0.2937" style="stop-color:#D5F3DA"/>
			<stop  offset="0.374" style="stop-color:#E6F6E9"/>
			<stop  offset="0.4735" style="stop-color:#F1F8F3"/>
			<stop  offset="0.6129" style="stop-color:#F8FAF8"/>
			<stop  offset="1" style="stop-color:#FAFAFA"/>
		</linearGradient>
		<path class="st1" d="M703.4,419.4v62.6c-11.4-2.7-23.2-5.3-35.6-7.5c-49.1-9.1-105.3-14.2-165.1-14.2c-74.7,0-143.9,8-200.7,21.8
			v-79.7l42.6-8.8l67.1-95.2l83.3,90.3l81.9-60.9l82.3,82.3l8.5,1.8L703.4,419.4z"/>
		<path class="st2" d="M703.4,419.4v62.6c-11.4-2.7-23.2-5.3-35.6-7.5V412L703.4,419.4z"/>
		<linearGradient id="SVGID_3_" gradientUnits="userSpaceOnUse" x1="154.6909" y1="466.6643" x2="302.0854" y2="466.6643">
			<stop  offset="0" style="stop-color:#0078C2"/>
			<stop  offset="0.3376" style="stop-color:#007CC5"/>
			<stop  offset="0.6948" style="stop-color:#0089CF"/>
			<stop  offset="1" style="stop-color:#019ADD"/>
		</linearGradient>
		<path class="st3" d="M154.7,256.4c0,40.2,58.2,75.8,147.4,97.4V677c-89.3-21.6-147.4-57.2-147.4-97.4V256.4z"/>
		<linearGradient id="SVGID_4_" gradientUnits="userSpaceOnUse" x1="862.4879" y1="464.2451" x2="714.3301" y2="468.456">
			<stop  offset="0" style="stop-color:#0078C2"/>
			<stop  offset="0.3493" style="stop-color:#007CC5"/>
			<stop  offset="0.6803" style="stop-color:#0087CE"/>
			<stop  offset="1" style="stop-color:#019ADD"/>
		</linearGradient>
		<path class="st4" d="M851.4,256.4l0.2,323.2c0,40.3-58.9,75.9-148.2,97.4l0-323.1C792.9,332.3,851.4,296.7,851.4,256.4"/>
		<path class="st5" d="M542.4,238.4c0,21.8-17.7,39.5-39.5,39.5c-5.7,0-11.1-1.2-16-3.4c-13.8-6.1-23.5-20-23.5-36.1
			s9.7-30,23.5-36.1c4.9-2.2,10.3-3.4,16-3.4C524.7,198.9,542.4,216.6,542.4,238.4z"/>
		<path class="st6" d="M542.4,238.4c0,21.8-17.7,39.5-39.5,39.5c-5.7,0-11.1-1.2-16-3.4c13.8-6.1,23.5-20,23.5-36.1
			s-9.7-30-23.5-36.1c4.9-2.2,10.3-3.4,16-3.4C524.7,198.9,542.4,216.6,542.4,238.4z"/>
	</g>
	<g>
		<path d="M862,256.3L862,256.3c0-36.7-38.9-70.2-109.4-94.3c-5.5-1.9-11.5,1.1-13.4,6.6c-1.9,5.5,1.1,11.5,6.6,13.4
			c60.5,20.7,95.1,47.8,95.1,74.4c0,33-53.6,66.5-139.9,87.3c-4.7,1.1-8.1,5.4-8.1,10.2l0,52.6l-28.3-5.9l-80.1-80.1
			c-3.7-3.7-9.5-4.1-13.7-1l-74.3,55.3l-76.9-83.4c-2.2-2.3-5.2-3.6-8.4-3.4c-3.2,0.2-6.1,1.8-7.9,4.4l-64.8,91.8l-25.9,5.3v-35.8
			c0-4.9-3.3-9.1-8-10.2c-86-20.8-139.4-54.2-139.4-87.1c0-26.6,34.6-53.7,94.9-74.3c64.7-22.1,151-34.3,242.9-34.3
			c71.4,0,139.9,7.4,197.9,21.4c5.6,1.4,11.3-2.1,12.7-7.8c1.4-5.6-2.1-11.3-7.8-12.7c-59.6-14.4-129.8-22-202.8-22
			c-94.2,0-182.9,12.6-249.7,35.5c-70.4,24.1-109.1,57.5-109.1,94.2v91.1c0,5.8,4.7,10.5,10.5,10.5c5.8,0,10.5-4.7,10.5-10.5v-46
			c23.8,24.3,67,45.2,126.4,60.4v301.5c-78.3-20.9-126.4-52.6-126.4-83.9V396.6c0-5.8-4.7-10.5-10.5-10.5c-5.8,0-10.5,4.7-10.5,10.5
			v182.9c0,44.6,56.7,83.8,155.4,107.7c0.8,0.2,1.6,0.3,2.5,0.3c2.3,0,4.6-0.8,6.5-2.3c2.5-2,4-5,4-8.3V490.4
			c12.6-2.9,25.7-5.4,39.3-7.7c5.7-1,9.6-6.4,8.6-12.1s-6.4-9.6-12.1-8.6c-12.3,2-24.2,4.4-35.8,6.9V411l34.2-7
			c2.6-0.5,4.9-2.1,6.5-4.2l59.6-84.6l74.5,80.8c3.6,4,9.7,4.5,14,1.3l74.6-55.5l75.9,75.9c1.4,1.4,3.3,2.4,5.3,2.9L693,428l0,40.9
			c-56.8-12.5-122.2-19.1-190.2-19.1c-36.7,0-72.9,1.9-107.5,5.7c-5.8,0.6-9.9,5.8-9.3,11.6c0.6,5.8,5.8,9.9,11.6,9.3
			c33.9-3.7,69.3-5.6,105.2-5.6c68.3,0,133.8,6.8,190.2,19.6l0,186.5c0,3.2,1.5,6.3,4,8.3c1.9,1.5,4.2,2.3,6.5,2.3
			c0.8,0,1.7-0.1,2.5-0.3c99.3-24,156.3-63.2,156.3-107.7L862,256.3z M714,663.5l0-301.4c59.7-15.2,103.1-36.2,126.9-60.6l0.2,278
			C841.2,610.8,792.9,642.5,714,663.5L714,663.5z"/>
		<path d="M453,238.4c0,27.6,22.4,50,50,50c27.6,0,50-22.4,50-50s-22.4-50-50-50C475.5,188.4,453,210.8,453,238.4z M532,238.4
			c0,16-13,29-29,29c-16,0-29-13-29-29s13-29,29-29C519,209.4,532,222.4,532,238.4z"/>
	</g>
</g>
<g>
	<path class="st11" d="M162.2,807.6v23.6h-11.6v-57.5h-0.6c-3.2,0-5.8-2.6-5.8-5.8s2.6-5.9,5.8-5.9h16c12.5,0,22.8,10.2,22.8,22.8
		c0,7-3.2,13.2-8.2,17.4c6.8,4.7,11,10.9,13.8,20.2c0.4,1.3,0.8,3.3,0.8,4.2c0,3.2-2.7,5.8-5.9,5.8s-5.2-2.3-5.8-4.9
		c-0.1-0.6-0.4-2-0.6-2.8C180.2,815.4,172.2,808.5,162.2,807.6z M165.9,773.6h-3.7v22.1h3.7c6.1,0,11.1-4.9,11.1-11
		C177,778.6,172,773.6,165.9,773.6z"/>
	<path class="st11" d="M236.9,831.8c-19.6,0-35.2-15.6-35.2-35.2s15.6-35.2,35.2-35.2s35.2,15.6,35.2,35.2S256.5,831.8,236.9,831.8z
		 M236.9,773c-13.1,0-23.6,10.5-23.6,23.6s10.5,23.6,23.6,23.6s23.6-10.5,23.6-23.6S250,773,236.9,773z"/>
	<path class="st11" d="M313.6,764c1.5-2.8,5-3.7,7.8-2.2c2.8,1.7,3.8,5.1,2.2,7.9l-24.8,42.9c3.3,3.7,8.4,7.8,13.7,7.8
		c1.3,0,2.3-0.9,2.3-2c0-2.9,2.4-5.6,5.6-5.6c3.1,0,5.6,2.6,5.6,5.6c0,8.4-5.2,13.3-13.6,13.3c-6.9,0-14.6-4.4-19.6-8.8l-3.5,6
		c-1.7,2.8-5.2,3.6-8.1,2c-2.8-1.7-3.6-5-1.9-7.9l24.8-42.8c-3.3-3.7-8.3-7.7-13.4-7.7c-1.3,0-2.3,0.9-2.3,2c0,2.9-2.4,5.6-5.6,5.6
		c-3.1,0-5.6-2.6-5.6-5.6c0-8.4,5.2-13.3,13.6-13.3c6.8,0,14.3,4.2,19.3,8.6L313.6,764z"/>
	<path class="st11" d="M347.8,831.1h-11.6V762h11.6v28.7h25.3V762h11.6v69.1h-11.6v-28.8h-25.3V831.1z"/>
	<path class="st11" d="M401.4,831.1V762h11.6v57.5h27.6v11.6H401.4z"/>
	<path class="st11" d="M468.1,819.5v11.6h-23.4v-11.6h5.9v-45.8h-5.9V762h23.4v11.6h-5.9v45.8H468.1z"/>
	<path class="st11" d="M486.5,831.1h-12.8l34.4-73l34.2,73h-12.8l-6.3-13.4h-30.3L486.5,831.1z M508,785.4l-9.6,20.5h19.2L508,785.4
		z"/>
	<path class="st11" d="M547.5,825.4c0-3.2,2.6-5.9,5.8-5.9h0.6v-45.8h-0.6c-3.2,0-5.8-2.6-5.8-5.8s2.6-5.9,5.8-5.9h15.5
		c19.1,0,34.6,15.5,34.6,34.6s-15.5,34.6-34.6,34.6h-15.5C550,831.1,547.5,828.6,547.5,825.4z M565.5,819.5h3.2
		c12.7,0,22.9-10.2,22.9-22.9s-10.2-22.9-22.9-22.9h-3.2V819.5z"/>
	<path class="st11" d="M627.1,790.7v40.5h-11.6v-72.5l37,44.2V762h11.6v72.8L627.1,790.7z"/>
	<path class="st11" d="M702.7,819.5v11.6h-23.4v-11.6h5.9v-45.8h-5.9V762h23.4v11.6h-5.9v45.8H702.7z"/>
	<path class="st11" d="M761.5,779.1c0,4.1,2.8,6,10.4,7.8c3.3,0.8,17.2,6.7,17.2,22.1c0,12.5-10.2,22.7-22.8,22.7
		c-12.3,0-20.7-9.9-20.7-14.6c0-3.2,2.6-5.8,5.8-5.8c2.8,0,4.2,1.5,5.6,3.8c0.5,0.9,3.8,4.9,9.3,4.9c6.1,0,11.1-4.9,11.1-11
		c0-6.7-4.9-10.5-12-11.9c-3.8-0.8-15.5-5.5-15.5-18c0-9.7,8.1-17.8,17.8-17.8c10.2,0,16.5,8.6,16.5,12.5c0,3.2-2.7,5.8-5.9,5.8
		c-2.6,0-4.2-1.7-4.6-2.3c-0.8-1.2-1.9-4.4-6-4.4C764.3,773,761.5,775.8,761.5,779.1z"/>
	<path class="st11" d="M805.6,831.1h-12.8l34.4-73l34.2,73h-12.8l-6.3-13.4H812L805.6,831.1z M827.1,785.4l-9.6,20.5h19.2
		L827.1,785.4z"/>
</g>
</svg>
